<svg xmlns="http://www.w3.org/2000/svg" width="47.995" height="47.93" viewBox="0 0 735 734">
  <defs>
    <style>
      .cls-1 {
        fill: #314b7d;
      }

      .cls-2 {
        fill: #fff;
        fill-rule: evenodd;
      }
    </style>
  </defs>
  <rect class="cls-1" x="-1" width="736" height="734" rx="64" ry="64"/>
  <path id="Shape_5_copy" data-name="Shape 5 copy" class="cls-2" d="M137.714,147.413c7.71-35.62,53-44.342,53-44.342a25.847,25.847,0,0,0-2.163,7.57c25.829-12.4,93.138,6.095,99.5,10.815,4.326-2.7-3.245-6.489-3.245-6.489s15.286,3.432,22.712,12.979c2.9-4.018-1.269-7.9,0-6.49a47.3,47.3,0,0,1,9.789,18.371,29.977,29.977,0,0,1,4.271-6.474s-3.082,13.953-3.244,15.142c-21.825-7.123-38.032-7.813-55.87-8.725,1.049-2.949-45.085-4.8-53.364-4.254,0.72-2.883-36.747.328-58.448,7.4C150.886,138.6,140.53,145.9,137.714,147.413ZM413.5,120.375c1.622,3.785,5.408-5.948,18.386-17.3,2.163,9.193,19.467-11.356,30.283-20.549,1.081,4.867,22.171,2.163,28.119-2.163,1.623-.541,38.935-27.038,50.832-29.2,22.6-13.614,38.508,17.219,47.587,37.853-4.866,2.163,4.326,25.956,4.326,25.956A108.55,108.55,0,0,0,573.569,95.5c-3.29,4.277-14.06-12.978-14.06-12.978-2.163,1.622,0,2.7,1.082,9.734-2.7-2.7-39.476,1.622-46.506,9.734,1.622-7.571-27.579,16.764-32.446,16.223-4.807-7.21-26.738,3.425-43.261,14.06,1.622-5.408-12.437-1.623-19.467,5.407C415.125,131.731,409.718,129.568,413.5,120.375ZM373.487,378.86s-11.537-.361-6.49-6.489c-7.931-1.082-15.5-1.082-11.9-8.653-7.571-1.8-17.305-6.849-20.549-4.326s-9.013,9.013-11.9,8.653c1.442-4.687-16.223-4.687-22.712,1.081-1.8-3.966-10.094-6.489-11.9-5.408-2.163,4.327-11.176,10.455-11.9,15.142-1.081-3.245-2.523-7.931-2.163-11.9a138.836,138.836,0,0,1-15.141,14.06,36.485,36.485,0,0,0-1.082-8.652c-10.815,6.489-36.772,24.154-46.5,40.016s-18.386,28.841-18.386,31.364,4.686-21.991,5.407-29.2c-16.223,0-23.734,1.41-31.364,9.734-2.884-8.652-15.5-5.047-24.875-1.082-3.966-9.733-6.489-22.712,0-27.038s-13.339-3.244-18.386-5.407c6.129-7.932-9.373-24.154-6.489-41.1-9.373-8.292-15.142-2.884-15.142-8.653s-5.047-5.047,2.163-9.733c-3.605-8.653-3.605-19.828,1.082-24.875-5.408-5.408-9.734-19.107-8.652-24.876s-1.082-61.647-1.082-61.647-2.163,66.695-5.408,73.544c-0.361,8.652.721,34.249-4.326,43.261,5.408,10.095,4.152,51.871-1.082,73.544-5.3,21.943.939,53.565,3.245,63.81,1.555,6.91,7.721,16.221,17.121,29.072-10.457-39.67,13.689,18.3,17.487,23.923,0.361-20.91,21.991,29.922,53,56.239a109.285,109.285,0,0,0,46.506,22.712s-15.863-19.467-5.408-10.815,43.622,49.029,70.3,62.729c-0.721-5.408,27.4,11.175,36.772,12.978-2.163-3.966,36.772,13.339,47.588,16.223-3.966-7.571,14.059-14.06,12.978-6.489,8.292-11.537,20.909-13.7,19.467-4.326,10.816-9.374,30.644-11.537,23.794-2.163,20.188-14.421,26.317-13.7,24.875-9.734,7.571-8.292,6.129-16.944,21.631-23.794s52.994-22.351,61.647-29.2c-10.1-2.524-7.571-16.583,17.3-19.467,3.966-14.781,27.759-38.935,49.75-50.832-12.618,1.081-1.442-37.854,12.979-25.957-1.8-11.176,9.012-23.072,14.059-16.223-0.721-17.3,2.524-23.433,6.49-19.467,0.721-4.687,0-51.192,5.407-45.424-1.442-7.932,7.931-18.386,9.734-22.712-4.687-7.211-8.135-15-4.326-23.794-2.524-12.257-8.292-30.283-3.245-50.832-6.849-27.4-12.978-114.642-12.978-133.027-2.884,27.4-.721,104.908,1.081,116.8-2.884-6.489-3.244-5.047-5.407-6.489,2.163,10.094-4.326,31.365,0,37.854,0.36,7.57-2.524,18.386-9.734,14.059s10.094,35.691-7.571,27.039c-1.8,8.652-12.257,21.27-9.733,31.364-10.816,1.081-20.91,8.292-18.386,14.06s-7.571,26.317-3.245,0c-12.978,8.652-27.4,37.493-34.609,16.223-5.768,6.128-11.536,12.257-9.734-2.163s6.49-64.531-30.282-76.789c-2.792,6.854-17.074,2.483-32.446-6.489-1.159,4.324-8.22,1.963-20.549-5.408-13.993-8.365-34.248-5.047-44.343-3.244-1.8,8.292-10.815,12.257-16.223,5.407C386.825,370.208,373.487,378.86,373.487,378.86Zm-1.082,16.223s3.092,11.978-12.978,20.549c-8.112,4.326-23.794,7.57-23.794,7.57l2.163-11.9-6.489,12.978-6.489-5.408L314,426.447,303.187,423.2l-8.652,6.49-8.652-3.245L272.9,430.773s-8.112-1.081-6.49-6.489c-8.652,6.489-23.411,13.93-19.467,21.63,7.571,14.781-3.245,51.914-3.245,51.914s10.275-14.6,15.142-12.979c-5.588,5.408,4.326,27.039,4.326,27.039s10.274-10.816,16.223-18.386c-4.326,15.682-4.326,25.235-4.326,30.282,18.025-25.956,16.517-41.232,6.489-47.587,2.027-6.3,15.672-5.765,16.223-8.652,6.918-1.876,14.472,4.572,18.386,1.082,7.956-7.1,9.634,5.969,8.652,16.222,11.9-13.519,11.716-13.519,15.141-20.549,5.818,3.46,19.825-.394,20.549,17.305,3.63-4.439,12.979-17.305,12.979-17.305l14.059,15.142a88.4,88.4,0,0,0,5.408-12.979c5.728,2.083,23.56,3.91,17.3,0-4.326-2.7,27.4,2.164,37.854,14.06-9.734,4.326-24.154,10.816-15.141,17.3s4.326,14.06,4.326,14.06v8.652s8.652,12.257,12.978,7.57a26,26,0,0,1,9.734-6.489s-1.082-2.523,4.326,6.489c2.884-15.5,3.965-21.991,0-27.038s16.223,2.163,16.223,2.163,10.454-1.442,5.407-9.733,6.489,1.081,6.489,1.081,1.443-20.188-2.163-22.712c5.048-3.6,13.7-2.523,9.734-9.734S498.583,447,487.047,443.751c1.8-6.849-12.978-18.386-12.978-18.386s-12.618,3.966-14.06,4.327-4.326-6.49-4.326-6.49l-4.327,7.571-21.63-1.081,1.081-7.571s-14.059,5.768-18.385,7.571c-0.721-2.524-5.408-5.408-5.408-5.408a44.872,44.872,0,0,0-11.9,3.245A89.937,89.937,0,0,1,384.3,423.2l-3.245-10.815c4.687-3.965-2.163-6.489-2.163-6.489Z"/>
</svg>
