<svg xmlns="http://www.w3.org/2000/svg" width="526" height="592" viewBox="0 0 526 592">
  <defs>
    <style>
      .cls-1 {
        fill: #fff;
        fill-rule: evenodd;
      }
    </style>
  </defs>
  <path class="cls-1" d="M51,93c7.129-32.935,49-41,49-41a23.932,23.932,0,0,0-2,7c23.882-11.468,86.118,5.635,92,10,4-2.5-3-6-3-6s14.133,3.173,21,12c2.683-3.715-1.174-7.3,0-6a43.735,43.735,0,0,1,9.051,16.986A27.7,27.7,0,0,1,221,80s-2.85,12.9-3,14c-20.179-6.586-35.165-7.224-51.658-8.067C167.312,83.207,124.655,81.5,117,82c0.666-2.666-33.977.3-54.041,6.842C63.179,84.849,53.6,91.6,51,93ZM312,68l1,6,4-8,5,6s15-12.5,21-15c-4.5,6.5,4,3,4,3s24-9.5,46-12,34.01-9.538,60,7c10.515,6.691,7.5,10.5,3,15-20.4-2.726-58.318,3.187-91,11,1.431-3.85-34.823,1.991-52.62,9.211C306.5,86.5,304.5,87,305,84S312,68,312,68ZM269,307s-10.667-.333-6-6c-7.333-1-14.333-1-11-8-7-1.667-16-6.333-19-4s-8.333,8.333-11,8c1.333-4.333-15-4.333-21,1-1.667-3.667-9.333-6-11-5-2,4-10.333,9.667-11,14-1-3-2.333-7.333-2-11a128.315,128.315,0,0,1-14,13,33.749,33.749,0,0,0-1-8c-10,6-34,22.333-43,37s-17,26.667-17,29,4.333-20.333,5-27c-15,0-21.945,1.3-29,9-2.667-8-14.333-4.667-23-1-3.667-9-6-21,0-25s-12.333-3-17-5c5.667-7.333-8.667-22.333-6-38-8.667-7.667-14-2.667-14-8s-4.667-4.667,2-9c-3.333-8-3.333-18.333,1-23-5-5-9-17.667-8-23s-1-57-1-57-2,61.667-5,68c-0.333,8,.667,31.667-4,40,5,9.333,3.839,47.96-1,68-4.9,20.289.868,49.527,3,59,1.438,6.389,7.139,15,15.831,26.88C11.162,385.2,33.488,438.8,37,444c0.333-19.333,20.333,27.667,49,52a101.052,101.052,0,0,0,43,21s-14.667-18-5-10,40.333,45.333,65,58c-0.667-5,25.333,10.333,34,12-2-3.667,34,12.333,44,15-3.667-7,13-13,12-6,7.667-10.667,19.333-12.667,18-4,10-8.667,28.333-10.667,22-2,18.667-13.333,24.333-12.667,23-9,7-7.667,5.667-15.667,20-22s49-20.667,57-27c-9.333-2.333-7-15.333,16-18,3.667-13.667,25.667-36,46-47-11.667,1-1.333-35,12-24-1.667-10.333,8.333-21.333,13-15-0.667-16,2.333-21.667,6-18,0.667-4.333,0-47.333,5-42-1.333-7.333,7.333-17,9-21-4.333-6.667-7.522-13.873-4-22-2.333-11.333-7.667-28-3-47-6.333-25.333-12-106-12-123-2.667,25.333-.667,97,1,108-2.667-6-3-4.667-5-6,2,9.333-4,29,0,35,0.333,7-2.333,17-9,13s9.333,33-7,25c-1.667,8-11.333,19.667-9,29-10,1-19.333,7.667-17,13s-7,24.333-3,0c-12,8-25.333,34.667-32,15-5.333,5.667-10.667,11.333-9-2s6-59.667-28-71c-2.582,6.337-15.787,2.3-30-6-1.071,4-7.6,1.815-19-5-12.938-7.734-31.667-4.667-41-3-1.667,7.667-10,11.333-15,5C281.333,299,269,307,269,307Zm-1,15s2.859,11.075-12,19c-7.5,4-22,7-22,7l2-11-6,12-6-5-10,7-10-3-8,6-8-3-12,4s-7.5-1-6-6c-8,6-21.647,12.88-18,20,7,13.667-3,48-3,48s9.5-13.5,14-12c-5.167,5,4,25,4,25s9.5-10,15-17c-4,14.5-4,23.333-4,28,16.667-24,15.273-38.124,6-44,1.874-5.826,14.491-5.331,15-8,6.4-1.735,13.382,4.227,17,1,7.357-6.562,8.908,5.52,8,15,11-12.5,10.833-12.5,14-19,5.379,3.2,18.33-.365,19,16,3.356-4.105,12-16,12-16l13,14a81.775,81.775,0,0,0,5-12c5.3,1.926,21.784,3.615,16,0-4-2.5,25.333,2,35,13-9,4-22.333,10-14,16s4,13,4,13v8s8,11.333,12,7a24.042,24.042,0,0,1,9-6s-1-2.333,4,6c2.667-14.333,3.667-20.333,0-25s15,2,15,2,9.667-1.333,5-9,6,1,6,1,1.333-18.667-2-21c4.667-3.333,12.667-2.333,9-9s-1.333-14-12-17c1.667-6.333-12-17-12-17s-11.667,3.667-13,4-4-6-4-6l-4,7-20-1,1-7s-13,5.333-17,7c-0.667-2.333-5-5-5-5a41.508,41.508,0,0,0-11,3,83.139,83.139,0,0,1-10-4l-3-10c4.333-3.667-2-6-2-6Z"/>
</svg>
