<svg width="233" height="66" viewBox="0 0 233 66" fill="none" xmlns="http://www.w3.org/2000/svg">
<g clip-path="url(#clip0_7_16)">
<path fill-rule="evenodd" clip-rule="evenodd" d="M78.2952 39.8303H84.9927C87.1077 39.8303 88.8586 40.2139 90.248 40.9684C91.6576 41.7338 92.7109 42.7757 93.4111 44.0902C94.1056 45.3937 94.4552 46.8781 94.4552 48.5445C94.4552 50.1948 94.1056 51.6712 93.4111 52.9748C92.7106 54.29 91.6568 55.3282 90.2466 56.0856C88.8575 56.8318 87.107 57.2111 84.9927 57.2111H78.2952V39.8303ZM84.5615 43.5445H82.5579V53.4969H84.5615C85.8948 53.4969 86.9725 53.2822 87.7916 52.8375C88.5838 52.4074 89.1609 51.8266 89.5182 51.0903C89.8846 50.3353 90.0658 49.4864 90.0658 48.5445C90.0658 47.5871 89.8847 46.7302 89.5182 45.9747C89.1606 45.2376 88.5826 44.6525 87.7893 44.2146C86.9707 43.7625 85.8937 43.5445 84.5615 43.5445ZM106.656 39.8303H110.919V57.2111H106.656V39.8303ZM132.734 57.5206C131.368 57.5206 130.103 57.2894 128.938 56.8292C127.77 56.3674 126.751 55.7239 125.882 54.8994C125.01 54.0731 124.332 53.1186 123.848 52.036C123.363 50.9509 123.119 49.7872 123.119 48.5445C123.119 47.3024 123.363 46.135 123.848 45.0418C124.332 43.951 125.01 42.9921 125.882 42.1657C126.751 41.3417 127.769 40.6944 128.936 40.2249C130.101 39.7561 131.367 39.5207 132.734 39.5207C134.294 39.5207 135.621 39.759 136.717 40.2278C137.825 40.7021 138.76 41.3807 139.522 42.2628L139.764 42.5428L136.687 45.0271L136.461 44.7927C136.021 44.3354 135.486 43.9785 134.857 43.7202C134.221 43.4591 133.513 43.3302 132.734 43.3302C131.672 43.3302 130.747 43.5645 129.963 44.0407C129.181 44.5148 128.577 45.1442 128.15 45.9297C127.722 46.7193 127.509 47.591 127.509 48.5445C127.509 49.4979 127.722 50.3698 128.15 51.1592C128.577 51.9447 129.181 52.5741 129.963 53.0484C130.747 53.5244 131.672 53.7587 132.734 53.7587C134.05 53.7587 135.116 53.4741 135.925 52.8861C136.621 52.38 137.075 51.6297 137.301 50.6433L131.541 50.6902V46.973H141.467L141.509 47.2829C141.543 47.5429 141.574 47.8557 141.599 48.2215C141.626 48.5883 141.639 48.9102 141.639 49.1874C141.639 50.7939 141.279 52.2217 140.564 53.4722C139.846 54.7281 138.819 55.7188 137.481 56.4423C136.157 57.1584 134.576 57.5206 132.734 57.5206ZM153.839 39.8303H158.102V57.2111H153.839V39.8303ZM175.122 43.5445H170.049V39.8303H184.459V43.5445H179.385V57.2111H175.122V43.5445ZM199.656 39.8303H203.191L210.731 57.2111H206.088L204.871 54.0445H197.951L196.733 57.2111H192.09L199.656 39.8303ZM201.104 46.3987L199.409 50.4492H203.412L201.716 46.3944L201.715 46.3918C201.608 46.1247 201.509 45.8578 201.417 45.5906C201.32 45.8691 201.216 46.1385 201.104 46.3987ZM222.135 39.8303H226.398V53.4969H233.019V57.2111H222.135V39.8303Z" fill="black"/>
<path d="M78.3969 33.5747H84.5417V22.8085C84.5417 20.0247 86.0112 18.5825 88.8164 18.5825C91.6218 18.5825 93.0911 20.0247 93.0911 22.8085V33.5747H99.2361V21.6011C99.2361 16.436 96.0634 13.082 90.3861 13.082C86.7459 13.082 84.5417 14.4908 82.9388 16.8049H81.5361V13.451H75.3912V19.4881H78.3969V33.5747Z" fill="#051000"/>
<path d="M111.76 33.9435C115.567 33.9435 117.637 32.6355 119.274 30.2207H120.676V33.5747H126.821V27.5375H123.816V13.451H117.671V24.2171C117.671 26.9674 116.101 28.4431 113.229 28.4431C110.457 28.4431 109.121 27.1351 109.121 24.4183V13.451H102.976V25.6258C102.976 30.7909 106.015 33.9435 111.76 33.9435Z" fill="#051000"/>
<path d="M136.74 33.5747H142.784V28.745H137.975V18.2807H142.317V13.451H137.909V7.41394H131.897V13.451H128.491V18.2807H131.831V28.745C131.831 32.0319 133.601 33.5747 136.74 33.5747Z" fill="#051000"/>
<path d="M149.597 33.5747H155.742V18.2807H160.017V13.451H155.675V10.2312H160.418V5.4016H154.607C151.434 5.4016 149.664 6.9444 149.664 10.2312V13.451H146.191V18.2807H149.597V33.5747Z" fill="#051000"/>
<path d="M170.069 5.40152H163.924V10.2014H170.069V5.40152Z" fill="#051000"/>
<path d="M170.069 13.451H163.924V33.5746H170.069V13.451Z" fill="#051000"/>
<path d="M184.73 33.9771C190.14 33.9771 193.847 31.361 194.715 26.9674H188.57C188.036 28.4766 186.867 29.1475 184.696 29.1475C181.958 29.1475 180.288 27.8059 179.821 25.2234H194.749V23.2445C194.749 16.9055 190.908 13.0486 184.496 13.0486C177.984 13.0486 173.91 17.0397 173.91 23.4457C173.91 29.8854 178.084 33.9771 184.73 33.9771ZM179.921 21.1986C180.489 19.0186 182.058 17.8782 184.53 17.8782C187.034 17.8782 188.47 18.985 188.871 21.1986H179.921Z" fill="#051000"/>
<path d="M204.734 5.4016H198.589V33.5747H204.734V5.4016Z" fill="#051000"/>
<path d="M218.226 33.9771C221.599 33.9771 224.037 32.602 225.473 30.2207H226.876V33.5747H233.02V27.5375H230.015V5.4016H223.87V16.0336H223.736C222.601 14.1553 220.53 13.0486 217.692 13.0486C211.914 13.0486 208.575 17.2745 208.575 23.5128C208.575 29.7176 211.914 33.9771 218.226 33.9771ZM219.395 28.6108C216.222 28.6108 214.719 26.632 214.719 23.5128C214.719 20.3937 216.222 18.4149 219.395 18.4149C222.167 18.4149 223.87 20.0583 223.87 22.775V24.2507C223.87 26.9674 222.167 28.6108 219.395 28.6108Z" fill="#051000"/>
<path fill-rule="evenodd" clip-rule="evenodd" d="M43.2325 61.8213C43.0058 62.007 42.7654 62.1825 42.5104 62.3473C37.7657 65.4199 37.5583 65.8273 37.2487 65.8273C36.9418 65.8273 36.7355 65.4273 32.1134 62.4293L31.9868 62.3473C29.8457 60.9608 28.7361 58.9376 28.1919 56.2042C30.8815 57.0836 34.5691 57.4945 35.1239 56.2373C34.8251 55.4788 27.432 50.4985 26.44 47.8956C26.2556 46.8122 26.5464 45.5496 27.4297 44.7682C29.0149 43.3659 31.226 42.0567 35.2971 41.7405C35.3748 41.7247 35.5111 41.711 35.6852 41.699V38.8122H38.818V41.7133C43.1474 41.9599 45.6928 43.0045 47.0675 44.7682C48.0703 46.0547 48.1363 47.585 47.7113 48.6522C45.8586 51.3616 39.7133 55.5473 39.4413 56.2373C39.9893 57.4788 43.5912 57.0936 46.2715 56.2373C45.7744 58.641 44.8501 60.4962 43.2325 61.8213ZM0.00487957 2.21561C4.31859e-05 2.17704 -0.00109493 2.1376 0.00118102 2.0976C0.0193886 1.77874 0.266612 1.52074 0.583538 1.49046C18.4796 1.27189 21.1643 -0.000106812 38.5327 -0.000106812C50.4489 -0.000106812 62.6822 14.7599 62.6822 36.7936C62.6822 43.8156 58.7755 50.6507 53.4324 55.5662C53.2939 40.8499 50.346 36.1239 47.3855 32.7725C52.4495 31.7893 55.6128 26.2985 56.2034 24.763C57.2088 22.1487 51.6714 17.4008 49.4797 16.0959C47.2877 14.7913 46.4071 13.8359 39.1782 13.7459C38.8797 13.7422 32.1045 8.15132 29.7976 9.72904C27.4906 11.307 30.1154 15.3896 30.9447 16.4839C31.8124 17.629 32.9637 18.6342 33.8673 19.3482C32.7205 18.7962 32.954 18.7593 31.8584 18.4402C28.8462 24.9796 25.3703 26.9079 22.7441 33.1419C20.4249 38.6465 18.3689 49.9233 20.1666 55.4785C15.9758 50.5645 13.9192 43.7602 13.9192 36.7759C13.9192 24.655 20.316 20.967 22.504 15.5542C22.8332 14.7399 23.0119 13.9853 23.0571 13.285L24.1473 13.2156L23.0611 13.215C23.0887 12.6822 23.0383 12.1807 22.9174 11.7085L24.0977 11.6333L22.8972 11.6327C22.7541 11.1096 22.5237 10.6225 22.2164 10.1679L24.0482 10.051L22.1345 10.0499C21.7797 9.55303 21.3319 9.09532 20.8048 8.67247C22.4995 8.56475 23.6804 8.48875 23.9988 8.46875C23.4562 8.46875 22.209 8.46761 20.5393 8.46704C19.9373 8.01818 19.2437 7.60932 18.4773 7.23446C21.3575 7.05275 23.5026 6.91474 23.9493 6.88646C23.1367 6.88646 20.7444 6.88389 17.72 6.88475C16.8688 6.5136 15.9433 6.17732 14.9647 5.86903C19.4807 5.58818 23.2872 5.34274 23.8997 5.30446C22.6998 5.30389 18.0534 5.29903 13.0145 5.30674C12.0418 5.04874 11.0338 4.81131 10.0082 4.58817C16.3675 4.20331 23.0229 3.77418 23.8502 3.72218C22.0742 3.72161 12.7502 3.71074 5.77639 3.74646C5.09275 3.61903 4.41168 3.49447 3.73743 3.37104C11.0361 2.96218 22.6881 2.20989 23.8007 2.13989C21.4466 2.13903 5.83045 2.12018 0.00487957 2.21561ZM43.2723 19.3396C44.3557 19.3396 45.2353 20.223 45.2353 21.311C45.2353 22.3993 44.3557 23.2827 43.2723 23.2827C42.1887 23.2827 41.309 22.3993 41.309 21.311H43.2723V19.3396Z" fill="url(#paint0_linear_7_16)"/>
</g>
<defs>
<linearGradient id="paint0_linear_7_16" x1="36.4342" y1="65.8273" x2="36.4342" y2="1.08968e-05" gradientUnits="userSpaceOnUse">
<stop stop-color="#9C2F00"/>
<stop offset="1" stop-color="#FF4D03"/>
</linearGradient>
<clipPath id="clip0_7_16">
<rect width="233" height="66" fill="white"/>
</clipPath>
</defs>
</svg>
